<svg fill="#000000" viewBox="0 0 512 512" xmlns="http://www.w3.org/2000/svg"><g id="SVGRepo_bgCarrier" stroke-width="0"></g><g id="SVGRepo_tracerCarrier" stroke-linecap="round" stroke-linejoin="round"></g><g id="SVGRepo_iconCarrier"><title>ionicons-v5-i</title><path d="M64,144H290.75a48,48,0,0,0,90.5,0H448a16,16,0,0,0,0-32H381.25a48,48,0,0,0-90.5,0H64a16,16,0,0,0,0,32Z"></path><path d="M448,368H381.25a48,48,0,0,0-90.5,0H64a16,16,0,0,0,0,32H290.75a48,48,0,0,0,90.5,0H448a16,16,0,0,0,0-32Z"></path><path d="M448,240H221.25a48,48,0,0,0-90.5,0H64a16,16,0,0,0,0,32h66.75a48,48,0,0,0,90.5,0H448a16,16,0,0,0,0-32Z"></path></g></svg>